<svg xmlns="http://www.w3.org/2000/svg" width="23.082" height="30.164" viewBox="0 0 23.082 30.164"><path id="descarga-de-archivos" d="M22.715,6.958,18.694,2.576A7.712,7.712,0,0,0,12.981,0H7.771A6.051,6.051,0,0,0,2,6.284v17.6a6.051,6.051,0,0,0,5.771,6.284H19.312a6.051,6.051,0,0,0,5.771-6.284v-10.7a9.149,9.149,0,0,0-2.367-6.221ZM21.083,8.736a6.23,6.23,0,0,1,.929,1.32H17A1.21,1.21,0,0,1,15.848,8.8V3.342a5.868,5.868,0,0,1,1.213,1.012l4.021,4.381Zm1.691,15.145a3.631,3.631,0,0,1-3.462,3.77H7.771a3.631,3.631,0,0,1-3.462-3.77V6.284a3.631,3.631,0,0,1,3.462-3.77h5.211a5.513,5.513,0,0,1,.56.029V8.8A3.631,3.631,0,0,0,17,12.568h5.744c.017.2.027.4.027.61v10.7Zm-4.955-3.638a1.336,1.336,0,0,1,0,1.777l-1.862,2.028a3.227,3.227,0,0,1-4.833,0L9.263,22.019a1.336,1.336,0,0,1,0-1.777,1.087,1.087,0,0,1,1.632,0l1.492,1.625V16.34a1.158,1.158,0,1,1,2.308,0v5.527l1.492-1.625A1.087,1.087,0,0,1,17.819,20.242Z" transform="translate(-2)" fill="#fff"></path></svg>