<svg xmlns="http://www.w3.org/2000/svg" xmlns:xlink="http://www.w3.org/1999/xlink" width="50" height="50" viewBox="0 0 50 50"><defs><clipPath id="clip-path"><rect id="Rectangle_54" data-name="Rectangle 54" width="50" height="50" transform="translate(-757 9293)" fill="#fff" stroke="#707070" stroke-width="1" opacity="0.5"></rect></clipPath></defs><g id="Mask_Group_16" data-name="Mask Group 16" transform="translate(757 -9293)" clip-path="url(#clip-path)"><path id="mano-que-sostiene-la-gota" d="M15.446,15.35a6.774,6.774,0,0,0,6.865-6.666c0-2-1.253-4.445-3.724-7.279a4.29,4.29,0,0,0-6.28,0C9.836,4.241,8.581,6.69,8.581,8.686a6.774,6.774,0,0,0,6.865,6.666ZM14.9,3.659a.726.726,0,0,1,1.1,0c1.8,2.068,2.882,3.947,2.882,5.025a3.341,3.341,0,0,1-3.432,3.233,3.341,3.341,0,0,1-3.432-3.233C12.014,7.608,13.09,5.729,14.9,3.659ZM39.5,15.051a5.166,5.166,0,0,0-7.3.342l-5.519,6.065a5.4,5.4,0,0,0-4.615-2.607H6.865A6.872,6.872,0,0,0,0,25.716V34.3a6.872,6.872,0,0,0,6.865,6.865h8.521A17.177,17.177,0,0,0,28.2,35.416L39.879,22.307a5.186,5.186,0,0,0-.376-7.258Zm-2.186,4.975L25.637,33.135a13.751,13.751,0,0,1-10.251,4.6H6.865A3.436,3.436,0,0,1,3.432,34.3V25.718a3.436,3.436,0,0,1,3.432-3.432h15.2a1.96,1.96,0,0,1,.276,3.9l-8.858,1.265a1.717,1.717,0,0,0,.486,3.4l8.856-1.265a5.426,5.426,0,0,0,4.316-3.534l7.6-8.348a1.735,1.735,0,0,1,2.576,2.325Z" transform="translate(-753 9296.962)" fill="#4daaa6"></path></g></svg>