<svg xmlns="http://www.w3.org/2000/svg" xmlns:xlink="http://www.w3.org/1999/xlink" width="50" height="50" viewBox="0 0 50 50"><defs><clipPath id="clip-path"><rect id="Rectangle_56" data-name="Rectangle 56" width="50" height="50" transform="translate(-127 9294)" fill="#fff" stroke="#707070" stroke-width="1" opacity="0.5"></rect></clipPath></defs><g id="Mask_Group_18" data-name="Mask Group 18" transform="translate(127 -9294)" clip-path="url(#clip-path)"><path id="cuidado-de-las-plantas" d="M.219,3.723a1.725,1.725,0,0,1,.807-2.349C3.435.267,8.878-1.192,14.034,1.652A6.376,6.376,0,0,1,17,9.358a16.617,16.617,0,0,1,.694,2.347,15.326,15.326,0,0,1,2.471-1.816,5.654,5.654,0,0,1,3.486-5.368c3.7-1.615,7.963-.619,10.006.2a1.683,1.683,0,0,1,.872,2.322,17.307,17.307,0,0,1-6.77,6.9,5.124,5.124,0,0,1-6.027-.77,9.92,9.92,0,0,0-3.614,3.931,1.825,1.825,0,0,1-1.692,1.143A1.746,1.746,0,0,1,14.6,16.5a21.69,21.69,0,0,0-.653-4.673,28.219,28.219,0,0,0-2.731-4.552A12.162,12.162,0,0,0,4.59,3.65C8.568,8.2,10.066,10.039,10.926,13.66a6.512,6.512,0,0,1-3.256-.79C4.189,10.949,1.809,6.883.219,3.723Zm42.19,20.033L29.99,37.7a18.271,18.271,0,0,1-13.629,6.111H7.3a7.308,7.308,0,0,1-7.3-7.3V27.38a7.308,7.308,0,0,1,7.3-7.3H23.467a5.73,5.73,0,0,1,4.908,2.772L34.247,16.4a5.494,5.494,0,0,1,7.764-.363A5.514,5.514,0,0,1,42.409,23.757Zm-2.856-5.023a1.862,1.862,0,0,0-1.329-.478,1.821,1.821,0,0,0-1.276.6l-8.08,8.88a5.769,5.769,0,0,1-4.589,3.756l-9.42,1.345a1.826,1.826,0,1,1-.517-3.616l9.42-1.345a2.085,2.085,0,0,0-.3-4.149H7.3a3.654,3.654,0,0,0-3.65,3.65V36.5a3.654,3.654,0,0,0,3.65,3.65h9.062a14.631,14.631,0,0,0,10.9-4.888L39.686,21.326a1.853,1.853,0,0,0-.131-2.594Z" transform="translate(-124 9297)" fill="#4daaa6"></path></g></svg>