<svg xmlns="http://www.w3.org/2000/svg" xmlns:xlink="http://www.w3.org/1999/xlink" width="50" height="50" viewBox="0 0 50 50"><defs><clipPath id="clip-path"><rect id="Rectangle_58" data-name="Rectangle 58" width="50" height="50" transform="translate(-606 9459)" fill="#fff" stroke="#707070" stroke-width="1" opacity="0.5"></rect></clipPath></defs><g id="Mask_Group_20" data-name="Mask Group 20" transform="translate(606 -9459)" clip-path="url(#clip-path)"><path id="hombre-empleado" d="M16.424,21.9A10.949,10.949,0,1,0,5.475,10.949,10.96,10.96,0,0,0,16.424,21.9Zm0-18.249a7.3,7.3,0,1,1-7.3,7.3A7.307,7.307,0,0,1,16.424,3.65Zm1.825,23.723A1.826,1.826,0,0,1,16.424,29.2,12.788,12.788,0,0,0,3.65,41.972a1.825,1.825,0,0,1-3.65,0A16.444,16.444,0,0,1,16.424,25.548,1.826,1.826,0,0,1,18.249,27.373Zm20.074-1.732v-.093a3.653,3.653,0,0,0-3.65-3.65h-3.65a3.653,3.653,0,0,0-3.65,3.65v.093A6.377,6.377,0,0,0,21.9,31.935V37.41A6.394,6.394,0,0,0,28.286,43.8H37.41A6.394,6.394,0,0,0,43.8,37.41V31.935a6.377,6.377,0,0,0-5.475-6.294ZM28.286,29.2H37.41a2.741,2.741,0,0,1,2.737,2.737v.912h-14.6v-.912A2.741,2.741,0,0,1,28.286,29.2ZM37.41,40.147H28.286a2.741,2.741,0,0,1-2.737-2.737V36.5h5.475a1.825,1.825,0,0,0,3.65,0h5.475v.912A2.741,2.741,0,0,1,37.41,40.147Z" transform="translate(-603 9462)" fill="#4daaa6"></path></g></svg>