<svg xmlns="http://www.w3.org/2000/svg" xmlns:xlink="http://www.w3.org/1999/xlink" width="50" height="50" viewBox="0 0 50 50"><defs><clipPath id="clip-path"><rect id="Rectangle_53" data-name="Rectangle 53" width="50" height="50" transform="translate(-1078 9293)" fill="#fff" stroke="#707070" stroke-width="1" opacity="0.5"></rect></clipPath></defs><g id="Mask_Group_15" data-name="Mask Group 15" transform="translate(1078 -9293)" clip-path="url(#clip-path)"><path id="circulo-de-flechas-de-investigacion" d="M41.182,20.591a1.716,1.716,0,0,1-3.432,0A17.149,17.149,0,0,0,6.879,10.3h5.132a1.716,1.716,0,1,1,0,3.432H5.148A3.435,3.435,0,0,1,1.716,10.3V3.432a1.716,1.716,0,0,1,3.432,0v3.61A20.548,20.548,0,0,1,41.182,20.591Zm-5.148,6.864H29.171a1.716,1.716,0,1,0,0,3.432H34.3a17.149,17.149,0,0,1-30.871-10.3,1.716,1.716,0,0,0-3.432,0A20.548,20.548,0,0,0,36.034,34.139v3.61a1.716,1.716,0,0,0,3.432,0V30.886A3.435,3.435,0,0,0,36.034,27.454ZM21.442,8.806a1.713,1.713,0,0,0-2.341.638s-5.218,9.166-5.254,9.29A2.77,2.77,0,0,0,16.5,22.307h7.027L19.1,30.033a1.716,1.716,0,0,0,2.979,1.706L27,23.146A2.754,2.754,0,0,0,24.7,18.873H17.667l4.413-7.728a1.715,1.715,0,0,0-.638-2.34Z" transform="translate(-1074 9297)" fill="#4daaa6"></path></g></svg>