<svg xmlns="http://www.w3.org/2000/svg" xmlns:xlink="http://www.w3.org/1999/xlink" width="50" height="50" viewBox="0 0 50 50"><defs><clipPath id="clip-path"><rect id="Rectangle_59" data-name="Rectangle 59" width="50" height="50" transform="translate(-1015 9458)" fill="#fff" stroke="#707070" stroke-width="1" opacity="0.5"></rect></clipPath></defs><g id="Mask_Group_19" data-name="Mask Group 19" transform="translate(1015 -9458)" clip-path="url(#clip-path)"><path id="maletin" d="M34.346,7.231H32.358A9.055,9.055,0,0,0,23.5,0H19.885a9.055,9.055,0,0,0-8.858,7.231H9.038A9.049,9.049,0,0,0,0,16.269V34.346a9.049,9.049,0,0,0,9.038,9.038H34.346a9.049,9.049,0,0,0,9.038-9.038V16.269a9.049,9.049,0,0,0-9.038-9.038ZM19.885,3.615H23.5a5.423,5.423,0,0,1,5.09,3.615h-13.8A5.423,5.423,0,0,1,19.885,3.615ZM9.038,10.846H34.346a5.423,5.423,0,0,1,5.423,5.423v5.423H3.615V16.269a5.423,5.423,0,0,1,5.423-5.423ZM34.346,39.769H9.038a5.423,5.423,0,0,1-5.423-5.423V25.308H19.885v1.808a1.808,1.808,0,1,0,3.615,0V25.308H39.769v9.038A5.423,5.423,0,0,1,34.346,39.769Z" transform="translate(-1012 9461)" fill="#4daaa6"></path></g></svg>