<svg xmlns="http://www.w3.org/2000/svg" xmlns:xlink="http://www.w3.org/1999/xlink" width="50" height="50" viewBox="0 0 50 50"><defs><clipPath id="clip-path"><rect id="Rectangle_55" data-name="Rectangle 55" width="50" height="50" transform="translate(-462 9293)" fill="#fff" stroke="#707070" stroke-width="1" opacity="0.5"></rect></clipPath></defs><g id="Mask_Group_17" data-name="Mask Group 17" transform="translate(462 -9293)" clip-path="url(#clip-path)"><path id="grupo-de-hr" d="M24.835,17.25v.013a8.428,8.428,0,0,0-2.252,1.447l-1.762,1.621a1.409,1.409,0,0,1-1.909,0L17.1,18.666a8.223,8.223,0,0,0-2.2-1.416,4.005,4.005,0,0,1,4.005-4.005h1.922a4.005,4.005,0,0,1,4.005,4.005ZM13.245,6.623A3.311,3.311,0,1,0,9.934,3.311,3.31,3.31,0,0,0,13.245,6.623Zm6.623,4.967a3.311,3.311,0,1,0-3.311-3.311A3.31,3.31,0,0,0,19.868,11.59Zm6.623-4.967A3.311,3.311,0,1,0,23.18,3.311,3.31,3.31,0,0,0,26.491,6.623Zm8.278,0A4.958,4.958,0,0,0,30.3,9.467a3.989,3.989,0,0,0-2.844-1.189h-.962a6.44,6.44,0,0,1-.664,2.843,5.761,5.761,0,0,1,2.263,4.056v1.394a8.378,8.378,0,0,1,1.712.162v3.442a4.966,4.966,0,0,0-4.975.972l-4.98,4.583c-.136-.139-.265-.285-.409-.417l-4.543-4.181a4.944,4.944,0,0,0-4.96-.959V16.726a8.349,8.349,0,0,1,1.709-.166V15.211a5.764,5.764,0,0,1,2.267-4.091,6.463,6.463,0,0,1-.664-2.843h-.962A3.989,3.989,0,0,0,9.439,9.465,4.956,4.956,0,0,0,0,11.588V28.312a13.159,13.159,0,0,0,3.879,9.366l1.573,1.573A1.655,1.655,0,1,0,7.793,36.91L6.22,35.337a9.87,9.87,0,0,1-2.909-7.025V11.59a1.656,1.656,0,0,1,3.311,0s-.008,13.373,0,13.441A5.144,5.144,0,0,0,7.86,28.1l4.331,4.505a1.656,1.656,0,0,0,2.387-2.295l-4.255-4.422a1.649,1.649,0,0,1,2.348-2.3L17.2,27.751a8.3,8.3,0,0,1,2.674,6.093V38.08a1.656,1.656,0,0,0,3.311,0V33.844a11.6,11.6,0,0,0-1.364-5.424l5.237-4.82a1.651,1.651,0,0,1,2.328.127c.265.3.785,1.4.109,2.078S25.3,30.166,25.3,30.166a1.656,1.656,0,0,0,2.388,2.295l4.268-4.444a3.993,3.993,0,0,0,1.161-3.182V11.59a1.656,1.656,0,0,1,3.311,0V28.314a9.873,9.873,0,0,1-2.909,7.025l-1.573,1.573a1.655,1.655,0,1,0,2.341,2.341l1.573-1.573a13.159,13.159,0,0,0,3.879-9.366V11.59a4.973,4.973,0,0,0-4.967-4.967Z" transform="translate(-457 9298)" fill="#4daaa6"></path></g></svg>