<svg xmlns="http://www.w3.org/2000/svg" xmlns:xlink="http://www.w3.org/1999/xlink" width="50" height="50" viewBox="0 0 50 50"><defs><clipPath id="clip-path"><rect id="Rectangle_57" data-name="Rectangle 57" width="50" height="50" transform="translate(-225 9436)" fill="#fff" stroke="#707070" stroke-width="1" opacity="0.5"></rect></clipPath></defs><g id="Mask_Group_21" data-name="Mask Group 21" transform="translate(225 -9436)" clip-path="url(#clip-path)"><path id="haz-de-sonrisa" d="M10.133,20.373a1.7,1.7,0,0,1-1.7-1.7c0-3.212,2.092-6.791,5.093-6.791s5.093,3.579,5.093,6.791a1.7,1.7,0,0,1-3.4,0c0-1.789-1.153-3.4-1.7-3.4s-1.7,1.606-1.7,3.4A1.7,1.7,0,0,1,10.133,20.373Zm16.978-8.489c-3,0-5.093,3.579-5.093,6.791a1.7,1.7,0,0,0,3.4,0c0-1.789,1.153-3.4,1.7-3.4s1.7,1.606,1.7,3.4a1.7,1.7,0,0,0,3.4,0C32.2,15.463,30.112,11.885,27.111,11.885Zm13.582,8.489A20.4,20.4,0,0,1,20.319,40.747c-27-1.019-26.983-39.728,0-40.747A20.4,20.4,0,0,1,40.693,20.373Zm-3.4,0A17,17,0,0,0,20.319,3.4c-22.492.849-22.487,33.107,0,33.956A17,17,0,0,0,37.3,20.373ZM28.45,23.81a26.147,26.147,0,0,1-8.131,1.657A26.147,26.147,0,0,1,12.17,23.81a1.7,1.7,0,0,0-1.786,2.577,11.606,11.606,0,0,0,9.936,5.871,11.591,11.591,0,0,0,9.919-5.871A1.7,1.7,0,0,0,28.45,23.81Z" transform="translate(-220.078 9441)" fill="#4daaa6"></path></g></svg>